<svg width="20" height="21" viewBox="0 0 20 21" fill="none" xmlns="http://www.w3.org/2000/svg">
<path d="M10.0001 18.5207C7.78998 18.5207 5.67035 17.6427 4.10755 16.0799C2.54475 14.517 1.66678 12.3975 1.66678 10.1873C1.66678 7.97719 2.54475 5.85758 4.10755 4.29478C5.67035 2.73198 7.78998 1.854 10.0001 1.854C12.2102 1.854 14.3298 2.73198 15.8927 4.29478C17.4554 5.85758 18.3334 7.97719 18.3334 10.1873C18.3334 12.3975 17.4554 14.517 15.8927 16.0799C14.3298 17.6427 12.2102 18.5207 10.0001 18.5207ZM11.6668 16.6457C12.9579 16.3112 14.1191 15.597 15.0001 14.5957V9.354C14.5581 9.354 14.1342 9.1784 13.8216 8.86585C13.509 8.55329 13.3334 8.12936 13.3334 7.68733V4.41233C12.5643 3.96995 11.7142 3.68656 10.8334 3.579V4.354C10.8334 4.79603 10.6578 5.21995 10.3453 5.53252C10.0327 5.84508 9.60881 6.02066 9.16678 6.02066V6.854C9.16678 7.29603 8.99118 7.71995 8.67862 8.03252C8.36606 8.34508 7.94214 8.52066 7.50011 8.52066V10.1873H10.0001C10.4421 10.1873 10.8661 10.3629 11.1786 10.6755C11.4912 10.988 11.6668 11.412 11.6668 11.854V16.6457ZM8.33345 16.6457V14.354C7.89142 14.354 7.46749 14.1784 7.15494 13.8658C6.84236 13.5533 6.66678 13.1294 6.66678 12.6873V11.854H6.25011C5.91859 11.854 5.60065 11.7223 5.36622 11.4879C5.13181 11.2535 5.00011 10.9355 5.00011 10.604V8.52066H3.54178C3.10115 10.2335 3.35828 12.0511 4.25668 13.5745C5.15508 15.0979 6.62132 16.2024 8.33345 16.6457Z" fill="#657085"/>
</svg>
