<svg width="24" height="25" viewBox="0 0 24 25" fill="none" xmlns="http://www.w3.org/2000/svg">
<g clip-path="url(#clip0_1_457)">
<path fill-rule="evenodd" clip-rule="evenodd" d="M5.33333 0.1875C2.38781 0.1875 0 2.57531 0 5.52083V18.8542C0 21.7996 2.38781 24.1875 5.33333 24.1875H12.006V14.1875H9.33333V10.7412L12.006 10.74L12.002 8.71001C12.002 5.89875 12.8127 4.1875 16.3332 4.1875H19.9655V7.63499H17.4324C16.0608 7.63499 15.9957 8.11625 15.9957 9.01501L15.9904 10.74H20L19.6119 14.1863L15.9931 14.1875L15.9904 24.1875H18.6667C21.6121 24.1875 24 21.7996 24 18.8542V5.52083C24 2.57531 21.6121 0.1875 18.6667 0.1875H5.33333Z" fill="#939DAE"/>
</g>
<defs>
<clipPath id="clip0_1_457">
<rect width="24" height="24" fill="white" transform="translate(0 0.1875)"/>
</clipPath>
</defs>
</svg>
