<svg width="20" height="20" viewBox="0 0 20 20" fill="none" xmlns="http://www.w3.org/2000/svg">
<g clip-path="url(#clip0_113_6203)">
<path d="M19.6551 16.5517H0.344843C0.154414 16.5517 0 16.3973 0 16.2069V3.79309C0 3.60266 0.154414 3.44824 0.344843 3.44824H19.6552C19.8456 3.44824 20 3.60266 20 3.79309V16.2069C20 16.3973 19.8455 16.5517 19.6551 16.5517Z" fill="#F5F5F5"/>
<path d="M20 4.45625H0V3.79309C0 3.60266 0.154414 3.44824 0.344843 3.44824H19.6552C19.8456 3.44824 20 3.60266 20 3.79309L20 4.45625Z" fill="#FF4B55"/>
<path d="M20 7.47998H0V8.48795H20V7.47998Z" fill="#FF4B55"/>
<path d="M20 5.46411H0V6.47208H20V5.46411Z" fill="#FF4B55"/>
<path d="M20 10.5039H0.344843C0.154414 10.5039 0 10.3494 0 10.159V9.49585H20V10.5039Z" fill="#FF4B55"/>
<path d="M20 13.5281H0V14.536H20V13.5281Z" fill="#FF4B55"/>
<path d="M19.6551 16.5517H0.344843C0.154414 16.5517 0 16.3973 0 16.2068V15.5437H20V16.2069C20 16.3973 19.8455 16.5517 19.6551 16.5517Z" fill="#FF4B55"/>
<path d="M20 11.512H0V12.5199H20V11.512Z" fill="#FF4B55"/>
<path d="M8.96549 3.44824H0.344843C0.154414 3.44824 0 3.60262 0 3.79305V10.159C0 10.3495 0.154414 10.5039 0.344843 10.5039H8.96553C9.15596 10.5039 9.31037 10.3495 9.31037 10.159V3.79305C9.31033 3.60262 9.15592 3.44824 8.96549 3.44824Z" fill="#41479B"/>
<path d="M0.968216 4.23976L1.04454 4.46867L1.28583 4.4705C1.31708 4.47078 1.33001 4.51062 1.3049 4.52917L1.11079 4.67253L1.18361 4.90257C1.19306 4.93234 1.15911 4.95702 1.13368 4.93882L0.937396 4.79855L0.741107 4.93886C0.715678 4.95702 0.681811 4.93238 0.691186 4.90261L0.763998 4.67257L0.569897 4.52921C0.54478 4.51062 0.557709 4.47081 0.588959 4.47054L0.830248 4.46871L0.906576 4.2398C0.91642 4.21011 0.958294 4.21011 0.968216 4.23976Z" fill="#F5F5F5"/>
<path d="M0.968216 5.43724L1.04454 5.66615L1.28583 5.66798C1.31708 5.66826 1.33001 5.7081 1.3049 5.72665L1.11079 5.87001L1.18361 6.10005C1.19306 6.12982 1.15911 6.15451 1.13368 6.1363L0.937396 5.99603L0.741107 6.13634C0.715678 6.15451 0.681811 6.12986 0.691186 6.10009L0.763998 5.87005L0.569897 5.72669C0.54478 5.7081 0.557709 5.6683 0.588959 5.66802L0.830248 5.66619L0.906576 5.43728C0.91642 5.40763 0.958294 5.40763 0.968216 5.43724Z" fill="#F5F5F5"/>
<path d="M0.968216 6.63451L1.04454 6.86341L1.28583 6.86525C1.31708 6.86552 1.33001 6.90537 1.3049 6.92392L1.11079 7.06728L1.18361 7.29732C1.19306 7.32708 1.15911 7.35177 1.13368 7.33357L0.937396 7.19329L0.741107 7.33361C0.715678 7.35177 0.681811 7.32712 0.691186 7.29736L0.763998 7.06732L0.569897 6.92396C0.54478 6.90537 0.557709 6.86556 0.588959 6.86529L0.830248 6.86345L0.906576 6.63455C0.91642 6.6049 0.958294 6.6049 0.968216 6.63451Z" fill="#F5F5F5"/>
<path d="M0.968216 7.83205L1.04454 8.06095L1.28583 8.06279C1.31708 8.06306 1.33001 8.1029 1.3049 8.12146L1.11079 8.26482L1.18361 8.49486C1.19306 8.52462 1.15911 8.54931 1.13368 8.53111L0.937396 8.39083L0.741107 8.53115C0.715678 8.54931 0.681811 8.52466 0.691186 8.4949L0.763998 8.26486L0.569897 8.1215C0.54478 8.1029 0.557709 8.0631 0.588959 8.06283L0.830248 8.06099L0.906576 7.83208C0.91642 7.8024 0.958294 7.8024 0.968216 7.83205Z" fill="#F5F5F5"/>
<path d="M0.968216 9.02958L1.04454 9.25849L1.28583 9.26033C1.31708 9.2606 1.33001 9.30044 1.3049 9.319L1.11079 9.46236L1.18361 9.6924C1.19306 9.72216 1.15911 9.74685 1.13368 9.72865L0.937396 9.58837L0.741107 9.72868C0.715678 9.74685 0.681811 9.7222 0.691186 9.69243L0.763998 9.4624L0.569897 9.31904C0.54478 9.30044 0.557709 9.26064 0.588959 9.26037L0.830248 9.25853L0.906576 9.02962C0.91642 8.9999 0.958294 8.9999 0.968216 9.02958Z" fill="#F5F5F5"/>
<path d="M1.8979 4.82689L1.97423 5.0558L2.21552 5.05764C2.24677 5.05791 2.2597 5.09775 2.23458 5.11631L2.04048 5.25967L2.11329 5.48971C2.12275 5.51947 2.0888 5.54416 2.06337 5.52596L1.86708 5.38564L1.67079 5.52596C1.64537 5.54412 1.6115 5.51947 1.62087 5.48971L1.69369 5.25967L1.49958 5.11631C1.47447 5.09771 1.4874 5.05791 1.51865 5.05764L1.75994 5.0558L1.83626 4.82689C1.84607 4.79729 1.88802 4.79729 1.8979 4.82689Z" fill="#F5F5F5"/>
<path d="M1.8979 6.02419L1.97423 6.25309L2.21552 6.25493C2.24677 6.2552 2.2597 6.29505 2.23458 6.3136L2.04048 6.45696L2.11329 6.687C2.12275 6.71677 2.0888 6.74145 2.06337 6.72325L1.86708 6.58294L1.67079 6.72325C1.64537 6.74141 1.6115 6.7168 1.62087 6.687L1.69369 6.45696L1.49958 6.3136C1.47447 6.29501 1.4874 6.2552 1.51865 6.25493L1.75994 6.25309L1.83626 6.02419C1.84607 5.99454 1.88802 5.99454 1.8979 6.02419Z" fill="#F5F5F5"/>
<path d="M1.8979 7.2217L1.97423 7.4506L2.21552 7.45244C2.24677 7.45271 2.2597 7.49256 2.23458 7.51111L2.04048 7.65447L2.11329 7.88451C2.12275 7.91428 2.0888 7.93896 2.06337 7.92076L1.86708 7.78045L1.67079 7.92076C1.64537 7.93892 1.6115 7.91428 1.62087 7.88451L1.69369 7.65447L1.49958 7.51111C1.47447 7.49252 1.4874 7.45271 1.51865 7.45244L1.75994 7.4506L1.83626 7.2217C1.84607 7.19205 1.88802 7.19205 1.8979 7.2217Z" fill="#F5F5F5"/>
<path d="M1.8979 8.41918L1.97423 8.64809L2.21552 8.64992C2.24677 8.65019 2.2597 8.69004 2.23458 8.70859L2.04048 8.85195L2.11329 9.08199C2.12275 9.11176 2.0888 9.13644 2.06337 9.11824L1.86708 8.97793L1.67079 9.11824C1.64537 9.1364 1.6115 9.11176 1.62087 9.08199L1.69369 8.85195L1.49958 8.70859C1.47447 8.69 1.4874 8.65019 1.51865 8.64992L1.75994 8.64809L1.83626 8.41918C1.84607 8.38957 1.88802 8.38957 1.8979 8.41918Z" fill="#F5F5F5"/>
<path d="M2.82661 4.23977L2.90294 4.46867L3.14423 4.47051C3.17548 4.47078 3.18841 4.51062 3.16329 4.52918L2.96919 4.67254L3.042 4.90258C3.05146 4.93234 3.01751 4.95703 2.99208 4.93883L2.79579 4.79851L2.59951 4.93883C2.57408 4.95699 2.54021 4.93234 2.54958 4.90258L2.6224 4.67254L2.4283 4.52918C2.40318 4.51058 2.41611 4.47078 2.44736 4.47051L2.68865 4.46867L2.76497 4.23977C2.77482 4.21012 2.81673 4.21012 2.82661 4.23977Z" fill="#F5F5F5"/>
<path d="M2.82661 5.43725L2.90294 5.66615L3.14423 5.66799C3.17548 5.66826 3.18841 5.7081 3.16329 5.72666L2.96919 5.87002L3.042 6.10006C3.05146 6.12982 3.01751 6.15451 2.99208 6.13631L2.79579 5.99599L2.59951 6.13631C2.57408 6.15447 2.54021 6.12982 2.54958 6.10006L2.6224 5.87002L2.4283 5.72666C2.40318 5.70807 2.41611 5.66826 2.44736 5.66799L2.68865 5.66615L2.76497 5.43725C2.77482 5.40764 2.81673 5.40764 2.82661 5.43725Z" fill="#F5F5F5"/>
<path d="M2.82661 6.63451L2.90294 6.86342L3.14423 6.86525C3.17548 6.86553 3.18841 6.90537 3.16329 6.92393L2.96919 7.06729L3.042 7.29732C3.05146 7.32709 3.01751 7.35178 2.99208 7.33357L2.79579 7.19326L2.59951 7.33357C2.57408 7.35174 2.54021 7.32709 2.54958 7.29732L2.6224 7.06729L2.4283 6.92393C2.40318 6.90533 2.41611 6.86553 2.44736 6.86525L2.68865 6.86342L2.76497 6.63451C2.77482 6.6049 2.81673 6.6049 2.82661 6.63451Z" fill="#F5F5F5"/>
<path d="M2.82661 7.83205L2.90294 8.06096L3.14423 8.06279C3.17548 8.06307 3.18841 8.10291 3.16329 8.12146L2.96919 8.26482L3.042 8.49486C3.05146 8.52463 3.01751 8.54931 2.99208 8.53111L2.79579 8.3908L2.59951 8.53111C2.57408 8.54928 2.54021 8.52463 2.54958 8.49486L2.6224 8.26482L2.4283 8.12146C2.40318 8.10287 2.41611 8.06307 2.44736 8.06279L2.68865 8.06096L2.76497 7.83205C2.77482 7.8024 2.81673 7.8024 2.82661 7.83205Z" fill="#F5F5F5"/>
<path d="M2.82661 9.02959L2.90294 9.2585L3.14423 9.26033C3.17548 9.2606 3.18841 9.30045 3.16329 9.319L2.96919 9.46236L3.042 9.6924C3.05146 9.72217 3.01751 9.74685 2.99208 9.72865L2.79579 9.58834L2.59951 9.72865C2.57408 9.74681 2.54021 9.72217 2.54958 9.6924L2.6224 9.46236L2.4283 9.319C2.40318 9.30041 2.41611 9.2606 2.44736 9.26033L2.68865 9.2585L2.76497 9.02959C2.77482 8.9999 2.81673 8.9999 2.82661 9.02959Z" fill="#F5F5F5"/>
<path d="M3.7563 4.82689L3.83263 5.0558L4.07392 5.05764C4.10517 5.05791 4.1181 5.09775 4.09298 5.11631L3.89888 5.25967L3.97169 5.48971C3.98115 5.51947 3.9472 5.54416 3.92177 5.52596L3.72548 5.38564L3.52919 5.52596C3.50376 5.54412 3.4699 5.51947 3.47927 5.48971L3.55208 5.25967L3.35798 5.11631C3.33287 5.09771 3.3458 5.05791 3.37705 5.05764L3.61833 5.0558L3.69466 4.82689C3.70447 4.79729 3.74642 4.79729 3.7563 4.82689Z" fill="#F5F5F5"/>
<path d="M3.7563 6.02419L3.83263 6.25309L4.07392 6.25493C4.10517 6.2552 4.1181 6.29505 4.09298 6.3136L3.89888 6.45696L3.97169 6.687C3.98115 6.71677 3.9472 6.74145 3.92177 6.72325L3.72548 6.58294L3.52919 6.72325C3.50376 6.74141 3.4699 6.7168 3.47927 6.687L3.55208 6.45696L3.35798 6.3136C3.33287 6.29501 3.3458 6.2552 3.37705 6.25493L3.61833 6.25309L3.69466 6.02419C3.70447 5.99454 3.74642 5.99454 3.7563 6.02419Z" fill="#F5F5F5"/>
<path d="M3.7563 7.2217L3.83263 7.4506L4.07392 7.45244C4.10517 7.45271 4.1181 7.49256 4.09298 7.51111L3.89888 7.65447L3.97169 7.88451C3.98115 7.91428 3.9472 7.93896 3.92177 7.92076L3.72548 7.78045L3.52919 7.92076C3.50376 7.93892 3.4699 7.91428 3.47927 7.88451L3.55208 7.65447L3.35798 7.51111C3.33287 7.49252 3.3458 7.45271 3.37705 7.45244L3.61833 7.4506L3.69466 7.2217C3.70447 7.19205 3.74642 7.19205 3.7563 7.2217Z" fill="#F5F5F5"/>
<path d="M3.7563 8.41918L3.83263 8.64809L4.07392 8.64992C4.10517 8.65019 4.1181 8.69004 4.09298 8.70859L3.89888 8.85195L3.97169 9.08199C3.98115 9.11176 3.9472 9.13644 3.92177 9.11824L3.72548 8.97793L3.52919 9.11824C3.50376 9.1364 3.4699 9.11176 3.47927 9.08199L3.55208 8.85195L3.35798 8.70859C3.33287 8.69 3.3458 8.65019 3.37705 8.64992L3.61833 8.64809L3.69466 8.41918C3.70447 8.38957 3.74642 8.38957 3.7563 8.41918Z" fill="#F5F5F5"/>
<path d="M4.68603 4.23977L4.76236 4.46867L5.00364 4.47051C5.03489 4.47078 5.04782 4.51062 5.02271 4.52918L4.82861 4.67254L4.90142 4.90258C4.91087 4.93234 4.87693 4.95703 4.8515 4.93883L4.65517 4.79851L4.45888 4.93883C4.43345 4.95699 4.39958 4.93234 4.40896 4.90258L4.48177 4.67254L4.28767 4.52918C4.26255 4.51058 4.27548 4.47078 4.30673 4.47051L4.54802 4.46867L4.62435 4.23977C4.63423 4.21012 4.67615 4.21012 4.68603 4.23977Z" fill="#F5F5F5"/>
<path d="M4.68603 5.43725L4.76236 5.66615L5.00364 5.66799C5.03489 5.66826 5.04782 5.7081 5.02271 5.72666L4.82861 5.87002L4.90142 6.10006C4.91087 6.12982 4.87693 6.15451 4.8515 6.13631L4.65517 5.99599L4.45888 6.13631C4.43345 6.15447 4.39958 6.12982 4.40896 6.10006L4.48177 5.87002L4.28767 5.72666C4.26255 5.70807 4.27548 5.66826 4.30673 5.66799L4.54802 5.66615L4.62435 5.43725C4.63423 5.40764 4.67615 5.40764 4.68603 5.43725Z" fill="#F5F5F5"/>
<path d="M4.68603 6.63451L4.76236 6.86342L5.00364 6.86525C5.03489 6.86553 5.04782 6.90537 5.02271 6.92393L4.82861 7.06729L4.90142 7.29732C4.91087 7.32709 4.87693 7.35178 4.8515 7.33357L4.65517 7.19326L4.45888 7.33357C4.43345 7.35174 4.39958 7.32709 4.40896 7.29732L4.48177 7.06729L4.28767 6.92393C4.26255 6.90533 4.27548 6.86553 4.30673 6.86525L4.54802 6.86342L4.62435 6.63451C4.63423 6.6049 4.67615 6.6049 4.68603 6.63451Z" fill="#F5F5F5"/>
<path d="M4.68603 7.83205L4.76236 8.06096L5.00364 8.06279C5.03489 8.06307 5.04782 8.10291 5.02271 8.12146L4.82861 8.26482L4.90142 8.49486C4.91087 8.52463 4.87693 8.54931 4.8515 8.53111L4.65517 8.3908L4.45888 8.53111C4.43345 8.54928 4.39958 8.52463 4.40896 8.49486L4.48177 8.26482L4.28767 8.12146C4.26255 8.10287 4.27548 8.06307 4.30673 8.06279L4.54802 8.06096L4.62435 7.83205C4.63423 7.8024 4.67615 7.8024 4.68603 7.83205Z" fill="#F5F5F5"/>
<path d="M4.68603 9.02959L4.76236 9.2585L5.00364 9.26033C5.03489 9.2606 5.04782 9.30045 5.02271 9.319L4.82861 9.46236L4.90142 9.6924C4.91087 9.72217 4.87693 9.74685 4.8515 9.72865L4.65517 9.58834L4.45888 9.72865C4.43345 9.74681 4.39958 9.72217 4.40896 9.6924L4.48177 9.46236L4.28767 9.319C4.26255 9.30041 4.27548 9.2606 4.30673 9.26033L4.54802 9.2585L4.62435 9.02959C4.63423 8.9999 4.67615 8.9999 4.68603 9.02959Z" fill="#F5F5F5"/>
<path d="M5.61568 4.82689L5.69201 5.0558L5.93329 5.05764C5.96454 5.05791 5.97747 5.09775 5.95236 5.11631L5.75826 5.25967L5.83107 5.48971C5.84052 5.51947 5.80658 5.54416 5.78115 5.52596L5.58486 5.38564L5.38857 5.52596C5.36314 5.54412 5.32927 5.51947 5.33865 5.48971L5.41146 5.25967L5.21736 5.11631C5.19224 5.09771 5.20517 5.05791 5.23642 5.05764L5.47771 5.0558L5.55404 4.82689C5.56392 4.79729 5.60579 4.79729 5.61568 4.82689Z" fill="#F5F5F5"/>
<path d="M5.61568 6.02419L5.69201 6.25309L5.93329 6.25493C5.96454 6.2552 5.97747 6.29505 5.95236 6.3136L5.75826 6.45696L5.83107 6.687C5.84052 6.71677 5.80658 6.74145 5.78115 6.72325L5.58486 6.58294L5.38857 6.72325C5.36314 6.74141 5.32927 6.7168 5.33865 6.687L5.41146 6.45696L5.21736 6.3136C5.19224 6.29501 5.20517 6.2552 5.23642 6.25493L5.47771 6.25309L5.55404 6.02419C5.56392 5.99454 5.60579 5.99454 5.61568 6.02419Z" fill="#F5F5F5"/>
<path d="M5.61568 7.2217L5.69201 7.4506L5.93329 7.45244C5.96454 7.45271 5.97747 7.49256 5.95236 7.51111L5.75826 7.65447L5.83107 7.88451C5.84052 7.91428 5.80658 7.93896 5.78115 7.92076L5.58486 7.78045L5.38857 7.92076C5.36314 7.93892 5.32927 7.91428 5.33865 7.88451L5.41146 7.65447L5.21736 7.51111C5.19224 7.49252 5.20517 7.45271 5.23642 7.45244L5.47771 7.4506L5.55404 7.2217C5.56392 7.19205 5.60579 7.19205 5.61568 7.2217Z" fill="#F5F5F5"/>
<path d="M5.61568 8.41918L5.69201 8.64809L5.93329 8.64992C5.96454 8.65019 5.97747 8.69004 5.95236 8.70859L5.75826 8.85195L5.83107 9.08199C5.84052 9.11176 5.80658 9.13644 5.78115 9.11824L5.58486 8.97793L5.38857 9.11824C5.36314 9.1364 5.32927 9.11176 5.33865 9.08199L5.41146 8.85195L5.21736 8.70859C5.19224 8.69 5.20517 8.65019 5.23642 8.64992L5.47771 8.64809L5.55404 8.41918C5.56392 8.38957 5.60579 8.38957 5.61568 8.41918Z" fill="#F5F5F5"/>
<path d="M6.54439 4.23977L6.62072 4.46867L6.86201 4.47051C6.89326 4.47078 6.90619 4.51062 6.88107 4.52918L6.68697 4.67254L6.75978 4.90258C6.76923 4.93234 6.73529 4.95703 6.70986 4.93883L6.51357 4.79851L6.31728 4.93883C6.29185 4.95699 6.25798 4.93234 6.26736 4.90258L6.34017 4.67254L6.14607 4.52918C6.12095 4.51058 6.13388 4.47078 6.16513 4.47051L6.40642 4.46867L6.48275 4.23977C6.49255 4.21012 6.53451 4.21012 6.54439 4.23977Z" fill="#F5F5F5"/>
<path d="M6.54439 5.43725L6.62072 5.66615L6.86201 5.66799C6.89326 5.66826 6.90619 5.7081 6.88107 5.72666L6.68697 5.87002L6.75978 6.10006C6.76923 6.12982 6.73529 6.15451 6.70986 6.13631L6.51357 5.99599L6.31728 6.13631C6.29185 6.15447 6.25798 6.12982 6.26736 6.10006L6.34017 5.87002L6.14607 5.72666C6.12095 5.70807 6.13388 5.66826 6.16513 5.66799L6.40642 5.66615L6.48275 5.43725C6.49255 5.40764 6.53451 5.40764 6.54439 5.43725Z" fill="#F5F5F5"/>
<path d="M6.54439 6.63451L6.62072 6.86342L6.86201 6.86525C6.89326 6.86553 6.90619 6.90537 6.88107 6.92393L6.68697 7.06729L6.75978 7.29732C6.76923 7.32709 6.73529 7.35178 6.70986 7.33357L6.51357 7.19326L6.31728 7.33357C6.29185 7.35174 6.25798 7.32709 6.26736 7.29732L6.34017 7.06729L6.14607 6.92393C6.12095 6.90533 6.13388 6.86553 6.16513 6.86525L6.40642 6.86342L6.48275 6.63451C6.49255 6.6049 6.53451 6.6049 6.54439 6.63451Z" fill="#F5F5F5"/>
<path d="M6.54439 7.83205L6.62072 8.06096L6.86201 8.06279C6.89326 8.06307 6.90619 8.10291 6.88107 8.12146L6.68697 8.26482L6.75978 8.49486C6.76923 8.52463 6.73529 8.54931 6.70986 8.53111L6.51357 8.3908L6.31728 8.53111C6.29185 8.54928 6.25798 8.52463 6.26736 8.49486L6.34017 8.26482L6.14607 8.12146C6.12095 8.10287 6.13388 8.06307 6.16513 8.06279L6.40642 8.06096L6.48275 7.83205C6.49255 7.8024 6.53451 7.8024 6.54439 7.83205Z" fill="#F5F5F5"/>
<path d="M6.54439 9.02959L6.62072 9.2585L6.86201 9.26033C6.89326 9.2606 6.90619 9.30045 6.88107 9.319L6.68697 9.46236L6.75978 9.6924C6.76923 9.72217 6.73529 9.74685 6.70986 9.72865L6.51357 9.58834L6.31728 9.72865C6.29185 9.74681 6.25798 9.72217 6.26736 9.6924L6.34017 9.46236L6.14607 9.319C6.12095 9.30041 6.13388 9.2606 6.16513 9.26033L6.40642 9.2585L6.48275 9.02959C6.49255 8.9999 6.53451 8.9999 6.54439 9.02959Z" fill="#F5F5F5"/>
<path d="M7.47408 4.82689L7.5504 5.0558L7.79169 5.05764C7.82294 5.05791 7.83587 5.09775 7.81075 5.11631L7.61665 5.25967L7.68947 5.48971C7.69892 5.51947 7.66497 5.54416 7.63954 5.52596L7.44325 5.38564L7.24697 5.52596C7.22154 5.54412 7.18767 5.51947 7.19704 5.48971L7.26986 5.25967L7.07576 5.11631C7.05064 5.09771 7.06357 5.05791 7.09482 5.05764L7.33611 5.0558L7.41244 4.82689C7.42228 4.79729 7.46423 4.79729 7.47408 4.82689Z" fill="#F5F5F5"/>
<path d="M7.47408 6.02419L7.5504 6.25309L7.79169 6.25493C7.82294 6.2552 7.83587 6.29505 7.81075 6.3136L7.61665 6.45696L7.68947 6.687C7.69892 6.71677 7.66497 6.74145 7.63954 6.72325L7.44325 6.58294L7.24697 6.72325C7.22154 6.74141 7.18767 6.7168 7.19704 6.687L7.26986 6.45696L7.07576 6.3136C7.05064 6.29501 7.06357 6.2552 7.09482 6.25493L7.33611 6.25309L7.41244 6.02419C7.42228 5.99454 7.46423 5.99454 7.47408 6.02419Z" fill="#F5F5F5"/>
<path d="M7.47408 7.2217L7.5504 7.4506L7.79169 7.45244C7.82294 7.45271 7.83587 7.49256 7.81075 7.51111L7.61665 7.65447L7.68947 7.88451C7.69892 7.91428 7.66497 7.93896 7.63954 7.92076L7.44325 7.78045L7.24697 7.92076C7.22154 7.93892 7.18767 7.91428 7.19704 7.88451L7.26986 7.65447L7.07576 7.51111C7.05064 7.49252 7.06357 7.45271 7.09482 7.45244L7.33611 7.4506L7.41244 7.2217C7.42228 7.19205 7.46423 7.19205 7.47408 7.2217Z" fill="#F5F5F5"/>
<path d="M7.47408 8.41918L7.5504 8.64809L7.79169 8.64992C7.82294 8.65019 7.83587 8.69004 7.81075 8.70859L7.61665 8.85195L7.68947 9.08199C7.69892 9.11176 7.66497 9.13644 7.63954 9.11824L7.44325 8.97793L7.24697 9.11824C7.22154 9.1364 7.18767 9.11176 7.19704 9.08199L7.26986 8.85195L7.07576 8.70859C7.05064 8.69 7.06357 8.65019 7.09482 8.64992L7.33611 8.64809L7.41244 8.41918C7.42228 8.38957 7.46423 8.38957 7.47408 8.41918Z" fill="#F5F5F5"/>
<path d="M8.40376 4.23977L8.48009 4.46867L8.72138 4.47051C8.75263 4.47078 8.76556 4.51062 8.74044 4.52918L8.54634 4.67254L8.61915 4.90258C8.62861 4.93234 8.59466 4.95703 8.56923 4.93883L8.37294 4.79851L8.17665 4.93883C8.15123 4.95699 8.11736 4.93234 8.12673 4.90258L8.19955 4.67254L8.00544 4.52918C7.98033 4.51058 7.99326 4.47078 8.02451 4.47051L8.2658 4.46867L8.34212 4.23977C8.35197 4.21012 8.39384 4.21012 8.40376 4.23977Z" fill="#F5F5F5"/>
<path d="M8.40376 5.43725L8.48009 5.66615L8.72138 5.66799C8.75263 5.66826 8.76556 5.7081 8.74044 5.72666L8.54634 5.87002L8.61915 6.10006C8.62861 6.12982 8.59466 6.15451 8.56923 6.13631L8.37294 5.99599L8.17665 6.13631C8.15123 6.15447 8.11736 6.12982 8.12673 6.10006L8.19955 5.87002L8.00544 5.72666C7.98033 5.70807 7.99326 5.66826 8.02451 5.66799L8.2658 5.66615L8.34212 5.43725C8.35197 5.40764 8.39384 5.40764 8.40376 5.43725Z" fill="#F5F5F5"/>
<path d="M8.40376 6.63451L8.48009 6.86342L8.72138 6.86525C8.75263 6.86553 8.76556 6.90537 8.74044 6.92393L8.54634 7.06729L8.61915 7.29732C8.62861 7.32709 8.59466 7.35178 8.56923 7.33357L8.37294 7.19326L8.17665 7.33357C8.15123 7.35174 8.11736 7.32709 8.12673 7.29732L8.19955 7.06729L8.00544 6.92393C7.98033 6.90533 7.99326 6.86553 8.02451 6.86525L8.2658 6.86342L8.34212 6.63451C8.35197 6.6049 8.39384 6.6049 8.40376 6.63451Z" fill="#F5F5F5"/>
<path d="M8.40376 7.83205L8.48009 8.06096L8.72138 8.06279C8.75263 8.06307 8.76556 8.10291 8.74044 8.12146L8.54634 8.26482L8.61915 8.49486C8.62861 8.52463 8.59466 8.54931 8.56923 8.53111L8.37294 8.3908L8.17665 8.53111C8.15123 8.54928 8.11736 8.52463 8.12673 8.49486L8.19955 8.26482L8.00544 8.12146C7.98033 8.10287 7.99326 8.06307 8.02451 8.06279L8.2658 8.06096L8.34212 7.83205C8.35197 7.8024 8.39384 7.8024 8.40376 7.83205Z" fill="#F5F5F5"/>
<path d="M8.40376 9.02959L8.48009 9.2585L8.72138 9.26033C8.75263 9.2606 8.76556 9.30045 8.74044 9.319L8.54634 9.46236L8.61915 9.6924C8.62861 9.72217 8.59466 9.74685 8.56923 9.72865L8.37294 9.58834L8.17665 9.72865C8.15123 9.74681 8.11736 9.72217 8.12673 9.6924L8.19955 9.46236L8.00544 9.319C7.98033 9.30041 7.99326 9.2606 8.02451 9.26033L8.2658 9.2585L8.34212 9.02959C8.35197 8.9999 8.39384 8.9999 8.40376 9.02959Z" fill="#F5F5F5"/>
</g>
<defs>
<clipPath id="clip0_113_6203">
<rect width="20" height="20" fill="white"/>
</clipPath>
</defs>
</svg>
