<svg width="20" height="20" viewBox="0 0 20 20" fill="none" xmlns="http://www.w3.org/2000/svg">
<g clip-path="url(#clip0_113_6208)">
<path d="M0.34582 16.5517H19.6561C19.8466 16.5517 20.001 16.3973 20.001 16.2069V3.79309C20.001 3.60266 19.8466 3.44824 19.6561 3.44824H0.34582C0.15539 3.44828 0.000976562 3.60266 0.000976562 3.79309V16.2069C0.000976562 16.3973 0.15539 16.5517 0.34582 16.5517Z" fill="#C8414B"/>
<path d="M20.0009 6.20703H0.000976562V13.7933H20.0009V6.20703Z" fill="#FFD250"/>
<path d="M8.44843 10L8.74082 8.68434C8.76777 8.56316 8.67554 8.44824 8.5514 8.44824H8.34546C8.22136 8.44824 8.12918 8.56316 8.15605 8.68434L8.44843 10Z" fill="#C8414B"/>
<path d="M8.79414 9.3103H8.10449V12.2412H8.79414V9.3103Z" fill="#F5F5F5"/>
<path d="M8.96613 8.96558H7.93164V9.31042H8.96613V8.96558Z" fill="#FAB446"/>
<path d="M8.96738 10H7.24316V10.3448H8.96738V10Z" fill="#C8414B"/>
<path d="M8.96711 11.3793L7.93262 11.0345V10.6897L8.96711 11.0345V11.3793Z" fill="#C8414B"/>
<path d="M3.27753 10L3.56992 8.68434C3.59687 8.56316 3.50464 8.44824 3.3805 8.44824H3.17457C3.05046 8.44824 2.95828 8.56316 2.98515 8.68434L3.27753 10Z" fill="#C8414B"/>
<path d="M4.48352 8.96558C4.29309 8.96558 4.13867 9.11999 4.13867 9.31042V11.5518C4.13867 11.9707 4.52969 12.7587 5.86281 12.7587C7.19593 12.7587 7.58695 11.9708 7.58695 11.5518V9.31042C7.58695 9.11999 7.43253 8.96558 7.2421 8.96558H4.48352Z" fill="#F5F5F5"/>
<path d="M5.86379 10.6897H4.13965V9.31042C4.13965 9.11999 4.29406 8.96558 4.48449 8.96558H5.86379V10.6897Z" fill="#C8414B"/>
<path d="M5.86426 10.6897H7.5884V11.5518C7.5884 12.0279 7.20246 12.4138 6.72633 12.4138C6.25019 12.4138 5.86426 12.0279 5.86426 11.5518V10.6897Z" fill="#C8414B"/>
<path d="M4.13867 10.6897H5.86281V11.5518C5.86281 12.0279 5.47687 12.4138 5.00074 12.4138C4.52461 12.4138 4.13867 12.0279 4.13867 11.5518V10.6897Z" fill="#FAB446"/>
<path d="M5.51672 12.2375V10.6897H5.17188V12.3965C5.30016 12.3704 5.41605 12.3136 5.51672 12.2375Z" fill="#C8414B"/>
<path d="M4.82727 12.3965V10.6897H4.48242V12.2375C4.58312 12.3136 4.69902 12.3704 4.82727 12.3965Z" fill="#C8414B"/>
<path d="M5.51789 10H4.4834V10.3448H5.51789V10Z" fill="#FFB441"/>
<path d="M5.51789 9.3103H4.4834V9.65515H5.51789V9.3103Z" fill="#FAB446"/>
<path d="M5.34492 9.51538H4.65527V10.1401H5.34492V9.51538Z" fill="#FAB446"/>
<path d="M3.62129 9.3103H2.93164V12.2412H3.62129V9.3103Z" fill="#F5F5F5"/>
<path d="M3.79328 12.0691H2.75879V12.4139H3.79328V12.0691Z" fill="#FAB446"/>
<path d="M3.79328 8.96558H2.75879V9.31042H3.79328V8.96558Z" fill="#FAB446"/>
<path d="M3.96621 12.4138H2.58691V12.7587H3.96621V12.4138Z" fill="#5064AA"/>
<path d="M9.13898 12.0691H8.10449V12.4139H9.13898V12.0691Z" fill="#FAB446"/>
<path d="M9.13808 12.4138H7.75879V12.7587H9.13808V12.4138Z" fill="#5064AA"/>
<path d="M6.89711 8.62085H4.82812V8.96569H6.89711V8.62085Z" fill="#FAB446"/>
<path d="M6.03527 7.58643H5.69043V8.62092H6.03527V7.58643Z" fill="#FFB441"/>
<path d="M5.51723 8.10354C5.23199 8.10354 5 7.87151 5 7.58632C5 7.30108 5.23203 7.06909 5.51723 7.06909C5.80246 7.06909 6.03445 7.30112 6.03445 7.58632C6.03449 7.87151 5.80246 8.10354 5.51723 8.10354ZM5.51723 7.4139C5.42211 7.4139 5.3448 7.49116 5.3448 7.58632C5.3448 7.68143 5.42207 7.75874 5.51723 7.75874C5.61238 7.75874 5.68965 7.68147 5.68965 7.58632C5.68965 7.4912 5.61238 7.4139 5.51723 7.4139Z" fill="#F5F5F5"/>
<path d="M6.20668 8.10354C5.92144 8.10354 5.68945 7.87151 5.68945 7.58632C5.68945 7.30108 5.92148 7.06909 6.20668 7.06909C6.49191 7.06909 6.7239 7.30112 6.7239 7.58632C6.7239 7.87151 6.49187 8.10354 6.20668 8.10354ZM6.20668 7.4139C6.11156 7.4139 6.03426 7.49116 6.03426 7.58632C6.03426 7.68143 6.11152 7.75874 6.20668 7.75874C6.3018 7.75874 6.3791 7.68147 6.3791 7.58632C6.37906 7.4912 6.3018 7.4139 6.20668 7.4139Z" fill="#F5F5F5"/>
<path d="M6.89711 8.44851C6.61187 8.44851 6.37988 8.21648 6.37988 7.93129C6.37988 7.64605 6.61191 7.41406 6.89711 7.41406C7.18234 7.41406 7.41433 7.64609 7.41433 7.93129C7.41433 8.21648 7.1823 8.44851 6.89711 8.44851ZM6.89711 7.75887C6.80199 7.75887 6.72469 7.83613 6.72469 7.93129C6.72469 8.02641 6.80195 8.10371 6.89711 8.10371C6.99223 8.10371 7.06953 8.02644 7.06953 7.93129C7.06953 7.83613 6.99223 7.75887 6.89711 7.75887Z" fill="#F5F5F5"/>
<path d="M4.82777 8.44851C4.54254 8.44851 4.31055 8.21648 4.31055 7.93129C4.31055 7.64605 4.54258 7.41406 4.82777 7.41406C5.11301 7.41406 5.345 7.64609 5.345 7.93129C5.34504 8.21648 5.11301 8.44851 4.82777 8.44851ZM4.82777 7.75887C4.73266 7.75887 4.65535 7.83613 4.65535 7.93129C4.65535 8.02641 4.73262 8.10371 4.82777 8.10371C4.92293 8.10371 5.00019 8.02641 5.00019 7.93125C5.00019 7.83613 4.92293 7.75887 4.82777 7.75887Z" fill="#F5F5F5"/>
<path d="M6.89672 11.3795V11.5519C6.89672 11.647 6.81937 11.7243 6.7243 11.7243C6.62922 11.7243 6.55187 11.647 6.55187 11.5519V11.3795H6.89672ZM7.24152 11.0347H6.20703V11.5519C6.20703 11.8371 6.43906 12.0691 6.72426 12.0691C7.00949 12.0691 7.24148 11.8371 7.24148 11.5519V11.0347H7.24152Z" fill="#FAB446"/>
<path d="M6.72473 10.3448C6.5343 10.3448 6.37988 10.1904 6.37988 9.99999V9.65515C6.37988 9.46472 6.5343 9.3103 6.72473 9.3103C6.91515 9.3103 7.06957 9.46472 7.06957 9.65515V9.99999C7.06957 10.1904 6.91515 10.3448 6.72473 10.3448Z" fill="#FFA0D2"/>
<path d="M5.86293 11.2068C6.14859 11.2068 6.38016 10.9752 6.38016 10.6896C6.38016 10.4039 6.14859 10.1724 5.86293 10.1724C5.57727 10.1724 5.3457 10.4039 5.3457 10.6896C5.3457 10.9752 5.57727 11.2068 5.86293 11.2068Z" fill="#5064AA"/>
<path d="M6.03527 6.89648H5.69043V7.93098H6.03527V6.89648Z" fill="#FAB446"/>
<path d="M4.82824 8.62067L4.4834 8.27583L4.68539 8.07384C4.99762 7.76161 5.42113 7.58618 5.86273 7.58618C6.30433 7.58618 6.72781 7.76161 7.04007 8.07384L7.24207 8.27583L6.89722 8.62067H4.82824Z" fill="#C8414B"/>
<path d="M5.86187 8.44812C5.9571 8.44812 6.0343 8.37092 6.0343 8.27569C6.0343 8.18047 5.9571 8.10327 5.86187 8.10327C5.76665 8.10327 5.68945 8.18047 5.68945 8.27569C5.68945 8.37092 5.76665 8.44812 5.86187 8.44812Z" fill="#FFD250"/>
<path d="M5.17242 8.44812C5.26765 8.44812 5.34484 8.37092 5.34484 8.27569C5.34484 8.18047 5.26765 8.10327 5.17242 8.10327C5.0772 8.10327 5 8.18047 5 8.27569C5 8.37092 5.0772 8.44812 5.17242 8.44812Z" fill="#FFD250"/>
<path d="M6.55133 8.44812C6.64655 8.44812 6.72375 8.37092 6.72375 8.27569C6.72375 8.18047 6.64655 8.10327 6.55133 8.10327C6.4561 8.10327 6.37891 8.18047 6.37891 8.27569C6.37891 8.37092 6.4561 8.44812 6.55133 8.44812Z" fill="#FFD250"/>
<path d="M4.483 10H2.75879V10.3448H4.483V10Z" fill="#C8414B"/>
<path d="M2.75879 11.3793L3.79324 11.0345V10.6897L2.75879 11.0345V11.3793Z" fill="#C8414B"/>
</g>
<defs>
<clipPath id="clip0_113_6208">
<rect width="20" height="20" fill="white"/>
</clipPath>
</defs>
</svg>
