<svg width="156" height="32" viewBox="0 0 156 32" fill="none" xmlns="http://www.w3.org/2000/svg">
<g clip-path="url(#clip0_1_302)">
<path fill-rule="evenodd" clip-rule="evenodd" d="M139.134 7.33594H135.878C135.805 7.33594 135.738 7.37979 135.708 7.44781L130.754 18.7417L125.798 7.44781C125.769 7.37979 125.702 7.33594 125.629 7.33594H122.348C122.285 7.33594 122.226 7.3695 122.192 7.42364C122.158 7.47779 122.154 7.54625 122.181 7.60487L130.538 25.4521C130.569 25.5174 130.634 25.5591 130.705 25.5591H130.801C130.873 25.5591 130.938 25.5174 130.968 25.4517L139.302 7.60442C139.329 7.5458 139.325 7.47779 139.291 7.42364C139.257 7.36905 139.198 7.33594 139.134 7.33594Z" fill="#0A61F7"/>
<path fill-rule="evenodd" clip-rule="evenodd" d="M121.89 15.5629H114.751C114.649 15.5629 114.566 15.647 114.566 15.7508V18.3941C114.566 18.4979 114.649 18.582 114.751 18.582H118.734V21.8576C117.74 22.5315 116.714 22.8326 115.422 22.8326C113.645 22.8326 112.191 22.2428 111.101 21.0812C110.005 19.8904 109.449 18.3601 109.449 16.5335C109.449 14.6827 109.982 13.1519 111.03 11.9853C112.1 10.7977 113.511 10.1954 115.225 10.1954C115.362 10.1954 118.584 10.2083 120.161 11.3185C120.217 11.357 120.289 11.3624 120.35 11.332L120.452 11.28C120.542 11.2348 120.58 11.1248 120.537 11.0321L118.924 7.53641C118.901 7.4863 118.858 7.44915 118.806 7.43483C117.423 7.05 115.682 7.02002 115.182 7.02002C112.547 7.02002 110.334 7.9284 108.604 9.72056C106.9 11.5114 106.036 13.8038 106.036 16.5335C106.036 19.2488 106.925 21.5336 108.679 23.3248C110.455 25.1157 112.724 26.0231 115.422 26.0231C118.191 26.0231 120.411 25.2105 122.02 23.6081C122.056 23.5727 122.075 23.5244 122.075 23.4739V15.7508C122.075 15.647 121.993 15.5629 121.89 15.5629Z" fill="#0A61F7"/>
<path fill-rule="evenodd" clip-rule="evenodd" d="M102.984 7.33594H99.9903C99.888 7.33594 99.8051 7.42006 99.8051 7.52388V18.109L89.5751 7.41066C89.5403 7.37352 89.4922 7.35339 89.4424 7.35339H89.1672C89.0648 7.35339 88.9819 7.43751 88.9819 7.54088V25.3711C88.9819 25.4749 89.0648 25.5591 89.1672 25.5591H92.1604C92.2623 25.5591 92.3456 25.4749 92.3456 25.3711V14.7627L102.597 25.5018C102.632 25.5385 102.68 25.5591 102.73 25.5591H102.984C103.085 25.5591 103.169 25.4749 103.169 25.3711V7.52388C103.169 7.42006 103.085 7.33594 102.984 7.33594Z" fill="#0A61F7"/>
<path fill-rule="evenodd" clip-rule="evenodd" d="M85.2883 7.33594H82.2951C82.1928 7.33594 82.1099 7.42006 82.1099 7.52388V25.3711C82.1099 25.4749 82.1928 25.5591 82.2951 25.5591H85.2883C85.3906 25.5591 85.4735 25.4749 85.4735 25.3711V7.52388C85.4735 7.42006 85.3906 7.33594 85.2883 7.33594Z" fill="#0A61F7"/>
<path fill-rule="evenodd" clip-rule="evenodd" d="M78.8922 7.35303H75.5876C75.51 7.35303 75.4408 7.4018 75.4138 7.47564L71.7026 17.6974L67.729 7.47206C67.7012 7.40001 67.6324 7.35303 67.5566 7.35303H67.3634C67.2876 7.35303 67.2188 7.40046 67.191 7.4725L63.2377 17.6952L59.5507 7.47608C59.5238 7.40225 59.4541 7.35303 59.3769 7.35303H56.0481C55.9864 7.35303 55.929 7.3839 55.8946 7.43536C55.8602 7.48682 55.8532 7.5526 55.8761 7.61033L62.8707 25.4406C62.8989 25.5122 62.9673 25.5592 63.0432 25.5592H63.2227C63.2976 25.5592 63.3651 25.5131 63.3938 25.4424L67.4706 15.3678L71.5637 25.4424C71.5924 25.5131 71.6599 25.5592 71.7348 25.5592H71.9152C71.9911 25.5592 72.0594 25.5122 72.0872 25.4406L79.0646 7.61033C79.0871 7.55216 79.0796 7.48682 79.0452 7.43536C79.0108 7.3839 78.9535 7.35303 78.8922 7.35303Z" fill="#0A61F7"/>
<path fill-rule="evenodd" clip-rule="evenodd" d="M54.0206 16.661C53.105 15.8081 51.5372 15.1391 49.3589 14.6729C47.9534 14.3833 47.0008 14.0741 46.532 13.7569C46.0685 13.4217 45.8431 12.9715 45.8431 12.3804C45.8431 10.9673 46.8151 10.1887 48.5797 10.1887C50.2688 10.1887 52.0981 10.7212 53.2395 11.5454C53.2964 11.5875 53.3709 11.5933 53.4327 11.5588L53.5795 11.481C53.6629 11.4367 53.7004 11.3351 53.6655 11.2456L52.241 7.58075C52.2194 7.52482 52.1727 7.48275 52.1158 7.46754C51.0026 7.17489 49.7876 7.02051 48.6035 7.02051C46.7424 7.02051 45.2839 7.52034 44.1461 8.5491C43.0245 9.55995 42.4561 10.8984 42.4561 12.5258C42.4561 13.96 42.8971 15.0921 43.8091 15.9911C44.7269 16.8463 46.2784 17.5148 48.4227 17.9793C51.1067 18.5422 52.058 19.174 52.058 20.393C52.058 21.8889 50.8121 22.855 48.8844 22.855C46.7803 22.855 45.2786 22.2147 44.0155 20.7778C43.9802 20.738 43.9304 20.7152 43.8775 20.7152H43.7818C43.7055 20.7152 43.6371 20.7626 43.6093 20.8346L42.4869 23.7321C42.4583 23.8068 42.4794 23.8918 42.5398 23.9437C44.1266 25.3041 46.2877 26.0236 48.7887 26.0236C50.7817 26.0236 52.4673 25.4754 53.6642 24.4391C54.814 23.4399 55.4217 21.9484 55.4217 20.1263C55.4217 18.6679 54.9493 17.5014 54.0206 16.661Z" fill="#0A61F7"/>
<path fill-rule="evenodd" clip-rule="evenodd" d="M155.977 7.46868C155.944 7.40872 155.882 7.37158 155.814 7.37158H152.303C152.238 7.37158 152.178 7.40514 152.145 7.46107L147.806 14.6234L143.467 7.46107C143.434 7.40514 143.373 7.37158 143.309 7.37158H139.822C139.754 7.37158 139.691 7.40872 139.659 7.46868C139.626 7.52864 139.628 7.60248 139.664 7.6602L146.129 18.1146V25.4842C146.129 25.5884 146.212 25.673 146.315 25.673H149.321C149.423 25.673 149.507 25.5884 149.507 25.4842V18.0663L155.971 7.66065C156.008 7.60248 156.01 7.52909 155.977 7.46868Z" fill="#0A61F7"/>
<path fill-rule="evenodd" clip-rule="evenodd" d="M33.9063 15.9851C33.8168 15.9793 33.7321 16.0639 33.6951 16.2066C33.0613 17.7585 32.1255 19.1251 31.4512 19.9995C29.9265 22.0266 28.409 23.6129 26.8112 24.8502C24.5095 26.6884 22.0825 28.0161 19.596 28.7956C16.7726 29.7505 13.9523 30.1658 11.2064 30.032H11.1125C11.0397 30.032 11.0005 30.0843 11.0005 30.1335C11.0005 30.1774 11.0314 30.2235 11.0896 30.2333C13.2135 31.4053 15.6881 32 18.445 32C23.8479 32 27.4312 29.4516 29.4868 27.3135C32.4302 24.251 34.1295 20.0894 34.0333 16.1816C34.0289 16.012 33.935 15.9883 33.9063 15.9851Z" fill="#0A61F7"/>
<path fill-rule="evenodd" clip-rule="evenodd" d="M8.94445 24.3129C9.06176 24.3129 9.1826 24.3124 9.3052 24.3107C9.33607 24.3107 9.3643 24.2914 9.37577 24.2623C9.38723 24.2332 9.38062 24.1997 9.35857 24.1777C7.37573 22.1735 6.40415 19.5132 6.40415 16.2654C6.40415 13.18 7.66504 10.0562 9.86266 7.6953C12.1692 5.2176 15.2136 3.85324 18.4357 3.85324C22.3493 3.85324 26.169 6.0253 28.4055 9.52146C28.4209 9.54473 28.45 9.55905 28.4729 9.55726C28.5003 9.55591 28.5245 9.5407 28.5373 9.51698C29.2205 8.25062 29.8833 6.59405 30.2247 5.69104C30.2555 5.60915 30.237 5.51831 30.1793 5.45342C27.0083 1.91028 22.7573 -0.0760778 18.5032 0.00223105C14.2301 0.00223105 10.2089 1.67401 7.21784 4.63096C4.21492 7.59953 2.56152 11.5875 2.56152 15.864C2.56152 17.3425 2.65855 20.1366 3.8449 22.3185C4.6921 23.8761 5.67426 24.3129 8.94445 24.3129Z" fill="#0A61F7"/>
<path fill-rule="evenodd" clip-rule="evenodd" d="M15.5384 28.3604L15.5287 28.3712C15.5507 28.3622 15.571 28.3524 15.5931 28.3434C20.4487 26.8014 24.9776 23.6172 28.4776 19.2475L28.4754 19.256C28.5287 19.1907 28.5768 19.1254 28.6293 19.06C28.6884 18.9849 28.7479 18.9101 28.8061 18.8345C35.6967 10.0518 34.0137 2.42408 34.0137 2.42408L34.0128 2.42677C33.8823 1.7372 33.6613 1.0812 33.2891 0.647588C33.1925 0.525426 33.0029 0.392525 32.995 0.387155C32.972 0.370599 32.9416 0.368361 32.9169 0.381786C32.8918 0.394315 32.8759 0.420269 32.875 0.448907C32.875 0.448907 32.8649 0.744691 32.8649 0.790334C32.7815 2.74 32.37 4.42745 31.3667 6.86442C31.3623 6.86979 31.3588 6.87561 31.3561 6.88232C30.8247 8.1809 29.9047 10.1691 28.5384 12.2798C28.53 12.2861 28.5234 12.2933 28.5177 12.3022C26.3889 15.7478 23.5637 18.6757 20.1202 21.0052C17.2019 23.0283 14.3922 24.4217 11.7685 25.148C11.7637 25.1489 11.7593 25.1511 11.7549 25.1534C11.6221 25.1963 10.2373 25.6192 8.61302 25.7208C7.0787 25.8165 4.85286 25.5901 3.4504 24.3179C1.90374 22.916 1.39568 20.1107 2.05633 16.5412C2.06251 16.5067 2.04619 16.4723 2.01532 16.4566C1.98489 16.4409 1.9474 16.4477 1.92403 16.4736C-0.734901 19.4314 -0.181417 23.8789 0.875273 25.5378C2.44223 27.9971 5.49587 29.3592 9.2106 29.3592C9.55725 29.3592 9.91006 29.3471 10.2673 29.3225C11.1224 29.2715 11.8228 29.165 12.3361 29.0782C13.4056 28.9059 14.4914 28.6902 15.5384 28.3604Z" fill="#0A61F7"/>
</g>
<defs>
<clipPath id="clip0_1_302">
<rect width="156" height="32" fill="white"/>
</clipPath>
</defs>
</svg>
