<svg width="33" height="34" viewBox="0 0 33 34" fill="none" xmlns="http://www.w3.org/2000/svg">
<path d="M10.1538 13.9279C13.1914 13.9279 15.6538 11.4654 15.6538 8.42786C15.6538 5.39029 13.1914 2.92786 10.1538 2.92786C7.11627 2.92786 4.65384 5.39029 4.65384 8.42786C4.65384 11.4654 7.11627 13.9279 10.1538 13.9279Z" fill="#ABCEFB"/>
<path d="M22.8462 26.6202C25.8837 26.6202 28.3462 24.1578 28.3462 21.1202C28.3462 18.0827 25.8837 15.6202 22.8462 15.6202C19.8086 15.6202 17.3462 18.0827 17.3462 21.1202C17.3462 24.1578 19.8086 26.6202 22.8462 26.6202Z" fill="#0034BD"/>
<path d="M15.6538 15.6202H4.65384V26.6202H15.6538V15.6202Z" fill="#0A61F7"/>
<path d="M17.3462 2.92786C23.4213 2.92786 28.3462 7.85273 28.3462 13.9279H17.3462V2.92786Z" fill="#6EA7FC"/>
<path d="M28.3461 28.3125H4.65384V31.6971H28.3461V28.3125Z" fill="#ABCEFB"/>
</svg>
