<svg width="21" height="21" viewBox="0 0 21 21" fill="none" xmlns="http://www.w3.org/2000/svg">
<path d="M6.8257 8.13639C8.66665 8.13639 10.159 6.64401 10.159 4.80306C10.159 2.96211 8.66665 1.46973 6.8257 1.46973C4.98476 1.46973 3.49237 2.96211 3.49237 4.80306C3.49237 6.64401 4.98476 8.13639 6.8257 8.13639Z" fill="#ABCEFB"/>
<path d="M14.518 15.8283C16.359 15.8283 17.8514 14.3359 17.8514 12.495C17.8514 10.654 16.359 9.16162 14.518 9.16162C12.6771 9.16162 11.1847 10.654 11.1847 12.495C11.1847 14.3359 12.6771 15.8283 14.518 15.8283Z" fill="#0034BD"/>
<path d="M10.159 9.16162H3.49237V15.8283H10.159V9.16162Z" fill="#0A61F7"/>
<path d="M11.1847 1.46973C14.8666 1.46973 17.8514 4.4545 17.8514 8.13639H11.1847V1.46973Z" fill="#6EA7FC"/>
<path d="M17.8513 16.854H3.49237V18.9053H17.8513V16.854Z" fill="#ABCEFB"/>
</svg>
