<svg width="21" height="21" viewBox="0 0 21 21" fill="none" xmlns="http://www.w3.org/2000/svg">
<path d="M9.90263 16.5977C13.8678 16.5977 17.0821 13.3834 17.0821 9.41826C17.0821 5.45314 13.8678 2.23877 9.90263 2.23877C5.93751 2.23877 2.72314 5.45314 2.72314 9.41826C2.72314 13.3834 5.93751 16.5977 9.90263 16.5977Z" fill="#FF9A7D"/>
<path d="M15.2873 18.1364C17.1282 18.1364 18.6206 16.644 18.6206 14.8031C18.6206 12.9621 17.1282 11.4697 15.2873 11.4697C13.4463 11.4697 11.9539 12.9621 11.9539 14.8031C11.9539 16.644 13.4463 18.1364 15.2873 18.1364Z" fill="#FED7C7"/>
<path d="M9.90263 2.23877H2.72314V9.41826H9.90263V2.23877Z" fill="#C5461E"/>
</svg>
