<svg width="21" height="21" viewBox="0 0 21 21" fill="none" xmlns="http://www.w3.org/2000/svg">
<path d="M17.8513 7.36719H3.49237V9.41847H17.8513V7.36719Z" fill="#FFD56B"/>
<path d="M3.49237 10.4438C3.49237 11.3867 3.67806 12.3203 4.03888 13.1913C4.39968 14.0624 4.92852 14.8538 5.59519 15.5205C6.26186 16.1872 7.05332 16.716 7.9244 17.0768C8.79545 17.4376 9.72904 17.6233 10.6719 17.6233C11.6147 17.6233 12.5483 17.4376 13.4193 17.0768C14.2904 16.716 15.0818 16.1872 15.7485 15.5205C16.4152 14.8538 16.944 14.0624 17.3048 13.1913C17.6657 12.3203 17.8513 11.3867 17.8513 10.4438H10.6719H3.49237Z" fill="#FEC33E"/>
<path d="M7.33856 6.34115C7.33856 5.9034 7.42479 5.46994 7.59231 5.06553C7.75982 4.66112 8.00536 4.29366 8.31487 3.98412C8.62441 3.67458 8.99187 3.42907 9.39628 3.26156C9.80069 3.09404 10.2342 3.00781 10.6719 3.00781C11.1096 3.00781 11.5431 3.09404 11.9475 3.26156C12.3519 3.42907 12.7194 3.67461 13.0289 3.98412C13.3385 4.29366 13.584 4.66112 13.7515 5.06553C13.919 5.46997 14.0052 5.9034 14.0052 6.34115H10.6719H7.33856Z" fill="#D98822"/>
</svg>
