<svg width="12" height="7" viewBox="0 0 12 7" fill="none" xmlns="http://www.w3.org/2000/svg">
<path d="M1.81883 6.68236C1.40675 7.10351 0.738899 7.10351 0.312611 6.69639C0.0994672 6.48582 1.02405e-07 6.21908 1.39224e-07 5.93831C1.74201e-07 5.67158 0.0994673 5.40485 0.312611 5.20831L5.24334 0.308849C5.44227 0.112309 5.71226 9.96515e-07 5.99645 1.03378e-06C6.28064 1.07105e-06 6.55062 0.112309 6.74956 0.308849L11.6803 5.20831C12.1066 5.61543 12.1066 6.27524 11.6803 6.6964C11.2682 7.10351 10.5861 7.10351 10.1741 6.68236L5.99645 2.54098L1.81883 6.68236Z" fill="black"/>
</svg>
