<svg width="24" height="25" viewBox="0 0 24 25" fill="none" xmlns="http://www.w3.org/2000/svg">
<g clip-path="url(#clip0_1_461)">
<path fill-rule="evenodd" clip-rule="evenodd" d="M5.33333 0.1875C2.38781 0.1875 0 2.57531 0 5.52083V18.8542C0 21.7996 2.38781 24.1875 5.33333 24.1875H18.6667C21.6121 24.1875 24 21.7996 24 18.8542V5.52083C24 2.57531 21.6121 0.1875 18.6667 0.1875H5.33333ZM7.636 18.8542V8.9533H4.198V18.8542H7.636ZM4 5.89663C4 4.92697 4.771 4.1875 5.938 4.1875C7.115 4.1875 7.844 4.92697 7.855 5.89663C7.865 6.84518 7.115 7.60479 5.917 7.60479H5.896C4.74 7.60479 4 6.84518 4 5.89663ZM12.958 10.3622C13.4091 9.68414 14.2229 8.72311 16.052 8.72311C18.312 8.72311 20 10.1416 20 13.1791V18.8542H16.572V13.559C16.572 12.2306 16.072 11.3213 14.834 11.3213C13.884 11.3213 13.323 11.9304 13.072 12.5202C12.99 12.7389 12.958 13.0295 12.958 13.3288V18.8542H9.531C9.573 9.88267 9.531 8.9533 9.531 8.9533H12.958V10.3622Z" fill="#939DAE"/>
</g>
<defs>
<clipPath id="clip0_1_461">
<rect width="24" height="24" fill="white" transform="translate(0 0.1875)"/>
</clipPath>
</defs>
</svg>
