<svg width="32" height="33" viewBox="0 0 32 33" fill="none" xmlns="http://www.w3.org/2000/svg">
<path d="M27.4872 12.2997H4.51282V15.5817H27.4872V12.2997Z" fill="#FFD56B"/>
<path d="M4.51282 17.2228C4.51282 18.7313 4.80993 20.225 5.38724 21.6187C5.96451 23.0124 6.81066 24.2787 7.87733 25.3454C8.944 26.4121 10.2103 27.2583 11.6041 27.8355C12.9977 28.4129 14.4915 28.71 16 28.71C17.5085 28.71 19.0023 28.4129 20.3959 27.8355C21.7897 27.2583 23.056 26.4121 24.1227 25.3454C25.1893 24.2787 26.0355 23.0124 26.6128 21.6187C27.1901 20.225 27.4872 18.7313 27.4872 17.2228H16H4.51282Z" fill="#FEC33E"/>
<path d="M10.6667 10.6587C10.6667 9.95826 10.8046 9.26472 11.0727 8.61767C11.3407 7.97061 11.7335 7.38267 12.2288 6.88741C12.724 6.39215 13.312 5.99933 13.959 5.73131C14.6061 5.46329 15.2996 5.32532 16 5.32532C16.7004 5.32532 17.3939 5.46329 18.041 5.73131C18.688 5.99933 19.276 6.39219 19.7712 6.88741C20.2665 7.38267 20.6593 7.97061 20.9273 8.61767C21.1954 9.26476 21.3333 9.95826 21.3333 10.6587H16H10.6667Z" fill="#D98822"/>
</svg>
