<?xml version="1.0" encoding="UTF-8"?>
<svg xmlns="http://www.w3.org/2000/svg" xmlns:xlink="http://www.w3.org/1999/xlink" width="32px" height="32px" viewBox="0 0 32 32" version="1.1">
<g id="surface1">
<path style=" stroke:none;fill-rule:nonzero;fill:rgb(14.901961%,14.901961%,14.901961%);fill-opacity:1;" d="M 22.292969 15.292969 L 9.707031 15.292969 C 9.316406 15.292969 9 15.609375 9 16 C 9 16.390625 9.316406 16.707031 9.707031 16.707031 L 22.292969 16.707031 C 22.683594 16.707031 23 16.390625 23 16 C 23 15.609375 22.683594 15.292969 22.292969 15.292969 Z M 22.292969 15.292969 "/>
<path style=" stroke:none;fill-rule:nonzero;fill:rgb(14.901961%,14.901961%,14.901961%);fill-opacity:1;" d="M 22.292969 11 L 9.707031 11 C 9.316406 11 9 11.316406 9 11.707031 C 9 12.101562 9.316406 12.417969 9.707031 12.417969 L 22.292969 12.417969 C 22.683594 12.417969 23 12.101562 23 11.707031 C 23 11.316406 22.683594 11 22.292969 11 Z M 22.292969 11 "/>
<path style=" stroke:none;fill-rule:nonzero;fill:rgb(14.901961%,14.901961%,14.901961%);fill-opacity:1;" d="M 22.292969 19.582031 L 9.707031 19.582031 C 9.316406 19.582031 9 19.898438 9 20.289062 C 9 20.679688 9.316406 21 9.707031 21 L 22.292969 21 C 22.683594 21 23 20.679688 23 20.289062 C 23 19.898438 22.683594 19.582031 22.292969 19.582031 Z M 22.292969 19.582031 "/>
<path style=" stroke:none;fill-rule:nonzero;fill:rgb(14.901961%,14.901961%,14.901961%);fill-opacity:1;" d="M 16 3.664062 C 9.226562 3.664062 3.714844 9.175781 3.714844 15.949219 C 3.714844 22.722656 9.226562 28.234375 16 28.234375 C 22.773438 28.234375 28.285156 22.726562 28.285156 15.949219 C 28.285156 9.175781 22.773438 3.664062 16 3.664062 Z M 16 26.820312 C 10.007812 26.820312 5.132812 21.945312 5.132812 15.949219 C 5.132812 9.957031 10.007812 5.082031 16 5.082031 C 21.992188 5.082031 26.867188 9.957031 26.867188 15.949219 C 26.867188 21.941406 21.992188 26.820312 16 26.820312 Z M 16 26.820312 "/>
</g>
</svg>
