<svg width="32" height="33" viewBox="0 0 32 33" fill="none" xmlns="http://www.w3.org/2000/svg">
<path d="M14.7692 27.069C21.1134 27.069 26.2564 21.926 26.2564 15.5818C26.2564 9.23759 21.1134 4.0946 14.7692 4.0946C8.42504 4.0946 3.28206 9.23759 3.28206 15.5818C3.28206 21.926 8.42504 27.069 14.7692 27.069Z" fill="#FF9A7D"/>
<path d="M23.3846 29.5304C26.3301 29.5304 28.718 27.1426 28.718 24.1971C28.718 21.2516 26.3301 18.8638 23.3846 18.8638C20.4391 18.8638 18.0513 21.2516 18.0513 24.1971C18.0513 27.1426 20.4391 29.5304 23.3846 29.5304Z" fill="#FED7C7"/>
<path d="M14.7692 4.0946H3.28206V15.5818H14.7692V4.0946Z" fill="#C5461E"/>
</svg>
