<svg width="24" height="25" viewBox="0 0 24 25" fill="none" xmlns="http://www.w3.org/2000/svg">
<g clip-path="url(#clip0_1_465)">
<path fill-rule="evenodd" clip-rule="evenodd" d="M5.33333 0.1875C2.38781 0.1875 0 2.57531 0 5.52083V18.8542C0 21.7996 2.38781 24.1875 5.33333 24.1875H18.6667C21.6121 24.1875 24 21.7996 24 18.8542V5.52083C24 2.57531 21.6121 0.1875 18.6667 0.1875H5.33333ZM6.16336 7.05077C9.87313 6.75815 14.1919 6.82099 17.8347 7.05077C19.1396 7.09579 19.7755 8.35537 19.8635 9.35422C20.0455 11.4532 20.0455 12.7775 19.8635 14.8755C19.7765 15.8744 18.9696 17.1508 17.8356 17.3356C14.2148 17.5983 9.91813 17.5663 6.16436 17.3356C4.99244 17.1968 4.22348 15.8744 4.13649 14.8755C3.95451 12.7775 3.95451 11.5836 4.13649 9.48553C4.22248 8.48667 5.01144 7.17175 6.16336 7.05077ZM9.99912 9.46302V14.8418L14.9988 12.1529L9.99912 9.46302Z" fill="#939DAE"/>
</g>
<defs>
<clipPath id="clip0_1_465">
<rect width="24" height="24" fill="white" transform="translate(0 0.1875)"/>
</clipPath>
</defs>
</svg>
