<svg width="24" height="25" viewBox="0 0 24 25" fill="none" xmlns="http://www.w3.org/2000/svg">
<g clip-path="url(#clip0_1_469)">
<path fill-rule="evenodd" clip-rule="evenodd" d="M5.33333 0.1875C2.38781 0.1875 0 2.57531 0 5.52083V18.8542C0 21.7996 2.38781 24.1875 5.33333 24.1875H18.6667C21.6121 24.1875 24 21.7996 24 18.8542V5.52083C24 2.57531 21.6121 0.1875 18.6667 0.1875H5.33333ZM18.3661 9.28221C18.3661 9.13542 18.3661 8.98959 18.3557 8.84378C18.9951 8.36243 19.5509 7.77417 20 7.10361C19.3993 7.37315 18.7625 7.54861 18.1111 7.62411C18.7959 7.20755 19.3088 6.54847 19.5529 5.77095C18.9103 6.16301 18.2061 6.43779 17.472 6.5831C16.8725 5.92642 16.0197 5.52083 15.0757 5.52083C14.6452 5.5207 14.2188 5.60761 13.8209 5.77659C13.4232 5.94557 13.0617 6.1933 12.7572 6.50563C12.4527 6.81798 12.2111 7.18882 12.0463 7.59695C11.8815 8.0051 11.7967 8.44255 11.7967 8.88434C11.7978 9.14375 11.8252 9.40235 11.8786 9.65593C10.574 9.58831 9.29779 9.2399 8.13292 8.63331C6.96807 8.02673 5.94057 7.17554 5.11717 6.13502C4.69439 6.87622 4.56395 7.7553 4.7526 8.59202C4.94124 9.42874 5.43468 10.1597 6.13176 10.6351C5.59341 10.6139 5.08612 10.4574 4.64941 10.2083V10.2498C4.64872 11.0271 4.91025 11.7806 5.3896 12.3825C5.86896 12.9844 6.53657 13.3974 7.27905 13.5515C7.00517 13.6239 6.71059 13.6655 6.41505 13.6655C6.20329 13.6655 6 13.6442 5.79765 13.6134C6.00781 14.2816 6.41625 14.8659 6.96585 15.2843C7.51545 15.7028 8.17876 15.9347 8.86305 15.9474C7.702 16.8819 6.26812 17.388 4.79247 17.3843C4.51859 17.3843 4.26447 17.3747 4 17.3438C5.50201 18.3343 7.25079 18.8587 9.03624 18.8542C15.0664 18.8542 18.3661 13.7292 18.3661 9.28221Z" fill="#939DAE"/>
</g>
<defs>
<clipPath id="clip0_1_469">
<rect width="24" height="24" fill="white" transform="translate(0 0.1875)"/>
</clipPath>
</defs>
</svg>
